<?xml version="1.0" encoding="UTF-8" standalone="no"?>
<!-- Created with Inkscape (http://www.inkscape.org/) by Marsupilami -->
<svg
   xmlns:svg="http://www.w3.org/2000/svg"
   xmlns="http://www.w3.org/2000/svg"
   version="1.0"
   width="1024"
   height="504"
   viewBox="0 0 191.25 94.153748"
   id="svg2676">
  <defs
     id="defs2678" />
  <g
     transform="translate(-279.375,-485.28531)"
     id="layer1">
    <path
       d="M 0,0 L 0,94.15625 L 94.15625,94.15625 L 94.15625,0 L 0,0 z M 188.3125,0 L 188.3125,94.15625 L 191.25,94.15625 L 191.25,0 L 188.3125,0 z M 102.8125,43.3125 C 102.5575,45.84125 102.38125,48.507499 102.3125,51.03125 L 103.46875,51.03125 C 103.51375,48.83 103.5725,46.535001 103.78125,44.53125 L 105.75,51.03125 L 106.625,51.03125 L 108.6875,44.53125 C 108.895,46.5525 109,48.829999 109.03125,51.03125 L 110.28125,51.03125 C 110.21125,48.5075 110.02,45.841251 109.78125,43.3125 L 108,43.3125 L 106.3125,48.875 L 106.28125,48.875 L 104.625,43.3125 L 102.8125,43.3125 z M 160.59375,43.65625 C 160.48875,44.20625 160.29375,44.822502 160.125,45.3125 L 159.21875,45.3125 L 159.21875,46.125 L 160.09375,46.125 L 160.09375,49.4375 C 160.09375,50.62875 160.51874,51.124998 161.5,51.125 C 161.93625,51.125 162.48,50.9975 162.8125,50.8125 L 162.71875,50.125 C 162.49125,50.1825 162.18,50.249998 161.9375,50.25 C 161.4,50.25 161.25,49.882502 161.25,49.375 L 161.25,46.125 L 162.65625,46.125 L 162.65625,45.3125 L 161.25,45.3125 L 161.25,43.65625 L 160.59375,43.65625 z M 113.75,45.21875 C 112.92625,45.21875 112.12875,45.448752 111.59375,45.6875 L 111.75,46.40625 C 112.22375,46.26 112.7875,46.124999 113.3125,46.125 C 114.0475,46.125 114.59375,46.366249 114.59375,47.125 L 114.59375,47.59375 L 114.125,47.59375 C 111.98,47.59375 111.28125,48.568751 111.28125,49.53125 C 111.28125,50.47 111.82625,51.156249 112.96875,51.15625 C 113.5975,51.15625 114.17875,50.819999 114.71875,50.375 L 114.84375,51.03125 L 115.75,51.03125 L 115.75,47 C 115.75,45.8975 115.23875,45.218749 113.75,45.21875 z M 119.90625,45.21875 C 119.36125,45.21875 118.66125,45.554999 118.15625,45.96875 L 118.03125,45.3125 L 117.09375,45.3125 L 117.09375,51.03125 L 118.25,51.03125 L 118.25,46.65625 C 118.56625,46.42625 119.05875,46.1875 119.46875,46.1875 C 120.065,46.1875 120.375,46.5975 120.375,48.0625 C 120.375,48.75875 120.34375,49.929999 120.34375,51.03125 L 121.5,51.03125 C 121.5,49.82625 121.5625,48.491249 121.5625,47.75 C 121.5625,45.85 120.95375,45.218749 119.90625,45.21875 z M 125.0625,45.21875 C 124.24125,45.21875 123.445,45.448752 122.90625,45.6875 L 123.0625,46.40625 C 123.52875,46.26 124.0975,46.124999 124.625,46.125 C 125.3525,46.125 125.90625,46.366249 125.90625,47.125 L 125.90625,47.59375 L 125.4375,47.59375 C 123.295,47.59375 122.5625,48.568751 122.5625,49.53125 C 122.5625,50.47 123.135,51.156249 124.28125,51.15625 C 124.9125,51.15625 125.49125,50.819999 126.03125,50.375 L 126.15625,51.03125 L 127.03125,51.03125 L 127.03125,47 C 127.03125,45.8975 126.55,45.218749 125.0625,45.21875 z M 130.96875,45.21875 C 129.05875,45.21875 128.15625,46.42 128.15625,48.25 C 128.15625,49.94625 128.91875,50.812499 130.03125,50.8125 C 130.545,50.8125 131.16624,50.512502 131.625,50.15625 L 131.625,50.96875 C 131.625,52.10125 131.05624,52.378748 128.6875,52.09375 L 128.59375,52.6875 C 129.19,52.94875 129.94624,53.093751 130.5625,53.09375 C 131.94,53.09375 132.75,52.584999 132.75,50.84375 L 132.75,45.4375 C 132.2475,45.33125 131.60125,45.218749 130.96875,45.21875 z M 142.4375,45.21875 C 141.89625,45.21875 141.2375,45.527501 140.75,45.9375 L 140.625,45.3125 L 139.6875,45.3125 L 139.6875,51.03125 L 140.84375,51.03125 L 140.84375,46.65625 C 141.13875,46.43875 141.5825,46.1875 142.03125,46.1875 C 142.53375,46.1875 142.84375,46.54 142.84375,47.9375 L 142.84375,51.03125 L 144,51.03125 L 144,47.6875 C 144,47.325 144.0025,46.941251 143.96875,46.6875 C 144.28625,46.46875 144.7475,46.1875 145.1875,46.1875 C 145.69875,46.1875 146.03125,46.52875 146.03125,48.03125 C 146.03125,48.74 146,49.929999 146,51.03125 L 147.15625,51.03125 C 147.15625,49.82625 147.1875,48.491249 147.1875,47.75 C 147.1875,45.85 146.57501,45.218749 145.59375,45.21875 C 144.94125,45.21875 144.35376,45.565 143.75,46.03125 C 143.5175,45.5075 143.07624,45.218749 142.4375,45.21875 z M 156.875,45.21875 C 156.32125,45.21875 155.625,45.554999 155.125,45.96875 L 155,45.3125 L 154.09375,45.3125 L 154.09375,51.03125 L 155.25,51.03125 L 155.25,46.65625 C 155.57,46.42625 156.0575,46.1875 156.46875,46.1875 C 157.06875,46.1875 157.375,46.5975 157.375,48.0625 C 157.375,48.75875 157.34376,49.929999 157.34375,51.03125 L 158.5,51.03125 C 158.5,49.82625 158.53126,48.491249 158.53125,47.75 C 158.53125,45.85 157.91749,45.218749 156.875,45.21875 z M 136.3125,45.25 C 134.78125,45.25 133.90626,46.377501 133.90625,48.34375 C 133.90625,50.2925 134.7175,51.156249 136.1875,51.15625 C 136.96,51.15625 137.765,50.892498 138.40625,50.5625 L 138.25,49.90625 C 137.78,50.0625 137.12875,50.1875 136.53125,50.1875 C 135.6875,50.1875 135.09374,49.66125 135.09375,48.53125 L 135.09375,48.34375 L 138.4375,48.34375 C 138.58875,46.05375 137.7225,45.250001 136.3125,45.25 z M 150.6875,45.25 C 149.15375,45.25 148.28126,46.377501 148.28125,48.34375 C 148.28125,50.2925 149.13,51.156249 150.59375,51.15625 C 151.37625,51.15625 152.16876,50.892498 152.8125,50.5625 L 152.625,49.90625 C 152.155,50.0625 151.53375,50.1875 150.9375,50.1875 C 150.09125,50.1875 149.5,49.66125 149.5,48.53125 L 149.5,48.34375 L 152.8125,48.34375 C 152.96125,46.05375 152.09624,45.250001 150.6875,45.25 z M 136.25,46.03125 C 136.98875,46.03125 137.3125,46.602501 137.3125,47.40625 L 137.3125,47.5625 L 135.09375,47.5625 C 135.12875,46.6475 135.5875,46.031249 136.25,46.03125 z M 150.625,46.03125 C 151.36875,46.03125 151.6875,46.602501 151.6875,47.40625 L 151.6875,47.5625 L 149.5,47.5625 C 149.5325,46.6475 149.96125,46.031249 150.625,46.03125 z M 130.8125,46.0625 C 131.05,46.0625 131.34625,46.11125 131.59375,46.1875 L 131.59375,49.375 C 131.25625,49.62625 130.825,49.874998 130.46875,49.875 C 129.79375,49.875 129.34376,49.394998 129.34375,47.90625 C 129.34375,46.6275 129.94125,46.062499 130.8125,46.0625 z M 114.09375,48.40625 L 114.59375,48.40625 L 114.59375,49.71875 C 114.1775,50.0175 113.7225,50.218752 113.3125,50.21875 C 112.7975,50.21875 112.46875,49.890002 112.46875,49.375 C 112.46875,48.80375 112.79,48.406249 114.09375,48.40625 z M 125.40625,48.40625 L 125.90625,48.40625 L 125.90625,49.71875 C 125.4975,50.0175 125.0375,50.218752 124.625,50.21875 C 124.11,50.21875 123.78125,49.890002 123.78125,49.375 C 123.78125,48.80375 124.1,48.406249 125.40625,48.40625 z M 124.71875,56.25 L 124.71875,64.375 L 125.875,64.375 L 125.875,60 C 126.16,59.79625 126.6675,59.531248 127.125,59.53125 C 127.72125,59.53125 128.03125,59.932501 128.03125,61.375 C 128.03125,62.04 128,63.250003 128,64.375 L 129.15625,64.375 C 129.15625,63.14875 129.1875,61.802501 129.1875,61.09375 C 129.1875,59.27375 128.6,58.562499 127.53125,58.5625 C 126.99375,58.5625 126.3575,58.85375 125.875,59.21875 L 125.875,56.25 L 124.71875,56.25 z M 142.28125,56.25 L 142.28125,63.28125 C 142.28125,64.25625 142.63,64.468748 143.375,64.46875 C 143.67125,64.46875 143.99625,64.422499 144.28125,64.34375 L 144.25,63.65625 L 143.875,63.65625 C 143.5325,63.65625 143.4375,63.538751 143.4375,62.90625 L 143.4375,56.25 L 142.28125,56.25 z M 109.46875,56.65625 L 109.46875,57.6875 L 111.34375,57.6875 L 111.34375,64.375 L 112.5625,64.375 L 112.5625,57.6875 L 114.46875,57.6875 L 114.46875,56.65625 L 109.46875,56.65625 z M 104.4375,56.6875 C 103.21125,56.6875 102.40625,57.409999 102.40625,58.5625 C 102.40625,59.0125 102.72375,59.634999 103.1875,60.34375 C 102.4,60.91625 101.8125,61.54375 101.8125,62.5625 C 101.8125,63.72875 102.5725,64.625001 104.15625,64.625 C 104.98875,64.625 105.7375,64.326249 106.34375,63.8125 C 106.9625,64.30125 107.48125,64.624997 107.78125,64.625 C 108.19375,64.625 108.385,64.584998 108.625,64.46875 L 108.625,63.78125 L 108.375,63.78125 C 108.12,63.78125 107.67,63.481249 107.09375,63 C 107.68,62.2125 108,61.193749 108,60.21875 L 107.09375,60.21875 C 107.05875,60.97375 106.805,61.76625 106.40625,62.375 C 105.79125,61.77875 105.1375,61.06125 104.625,60.375 C 105.4825,59.815 106.34375,59.258751 106.34375,58.21875 C 106.34375,57.42625 105.72125,56.687502 104.4375,56.6875 z M 104.375,57.5 C 104.96,57.5 105.1875,57.857501 105.1875,58.375 C 105.1875,58.95625 104.71,59.359998 104.125,59.75 C 103.76875,59.2125 103.5625,58.707502 103.5625,58.375 C 103.5625,57.88375 103.84625,57.500002 104.375,57.5 z M 133.4375,58.5625 C 132.89125,58.5625 132.19125,58.902501 131.6875,59.3125 L 131.59375,58.65625 L 130.65625,58.65625 L 130.65625,64.375 L 131.8125,64.375 L 131.8125,60 C 132.1325,59.76875 132.61625,59.531248 133.03125,59.53125 C 133.625,59.53125 133.9375,59.911251 133.9375,61.375 C 133.9375,62.07375 133.90625,63.272503 133.90625,64.375 L 135.0625,64.375 C 135.0625,63.17375 135.09375,61.838752 135.09375,61.09375 C 135.09375,59.1925 134.47876,58.562499 133.4375,58.5625 z M 138.71875,58.5625 C 137.21875,58.5625 136.15625,59.52875 136.15625,61.625 C 136.15625,63.745 137.08375,64.468753 138.5625,64.46875 C 140.1075,64.46875 141.15625,63.482501 141.15625,61.375 C 141.15625,59.3975 140.18499,58.562499 138.71875,58.5625 z M 147.3125,58.5625 C 145.81,58.5625 144.75001,59.52875 144.75,61.625 C 144.75,63.745 145.68376,64.468753 147.15625,64.46875 C 148.70375,64.46875 149.75,63.482501 149.75,61.375 C 149.75,59.3975 148.775,58.562499 147.3125,58.5625 z M 153.3125,58.5625 C 151.39875,58.5625 150.53125,59.762498 150.53125,61.59375 C 150.53125,63.2875 151.26375,64.156246 152.375,64.15625 C 152.88875,64.15625 153.54125,63.856249 154,63.5 L 154,64.3125 C 154,65.44125 153.39875,65.72625 151.03125,65.4375 L 150.96875,66.03125 C 151.56625,66.295 152.29,66.437496 152.90625,66.4375 C 154.28125,66.4375 155.09375,65.922497 155.09375,64.1875 L 155.09375,58.78125 C 154.59,58.67625 153.94375,58.562499 153.3125,58.5625 z M 116.625,58.59375 C 115.08875,58.59375 114.21875,59.71875 114.21875,61.6875 C 114.21875,63.63625 115.06625,64.468753 116.53125,64.46875 C 117.31375,64.46875 118.105,64.236251 118.75,63.90625 L 118.5625,63.25 C 118.0925,63.40875 117.47125,63.531251 116.875,63.53125 C 116.02875,63.53125 115.4375,63.007501 115.4375,61.875 L 115.4375,61.6875 L 118.78125,61.6875 C 118.92875,59.40125 118.03375,58.593748 116.625,58.59375 z M 122,58.59375 C 120.6025,58.59375 119.65625,59.762502 119.65625,61.59375 C 119.65625,63.58625 120.42,64.468753 121.84375,64.46875 C 122.6525,64.46875 123.3775,64.067501 123.8125,63.65625 L 123.5,63.0625 C 123.05375,63.36125 122.6375,63.531251 122.0625,63.53125 C 121.23875,63.53125 120.84375,62.806248 120.84375,61.40625 C 120.84375,60.26375 121.32875,59.500001 122.09375,59.5 C 122.4925,59.5 122.94875,59.689999 123.28125,59.90625 L 123.65625,59.3125 C 123.24625,58.865 122.64875,58.593748 122,58.59375 z M 155.84375,58.65625 L 157.5625,63.71875 C 157.93,64.78 157.345,65.5 156.28125,65.5 C 156.165,65.5 155.95875,65.491249 155.8125,65.46875 L 155.8125,66.1875 C 155.9925,66.3125 156.33625,66.406247 156.65625,66.40625 C 157.755,66.40625 159.48124,65.165 160.71875,58.65625 L 159.46875,58.65625 C 159.27375,60.24 158.95876,61.753751 158.5,63.21875 L 158.15625,62.125 L 157.09375,58.65625 L 155.84375,58.65625 z M 116.5625,59.375 C 117.30875,59.375 117.625,59.949999 117.625,60.75 L 117.625,60.90625 L 115.4375,60.90625 C 115.47375,59.99125 115.89875,59.375001 116.5625,59.375 z M 153.15625,59.40625 C 153.395,59.40625 153.71375,59.451248 153.96875,59.53125 L 153.96875,62.71875 C 153.6225,62.97125 153.2025,63.218751 152.84375,63.21875 C 152.1725,63.21875 151.71874,62.73625 151.71875,61.25 C 151.71875,59.96625 152.2875,59.406249 153.15625,59.40625 z M 138.65625,59.46875 C 139.495,59.46875 139.93751,60.027501 139.9375,61.6875 C 139.9375,63.04125 139.48,63.593748 138.6875,63.59375 C 137.8325,63.59375 137.34375,63.037501 137.34375,61.34375 C 137.34375,60.07 137.835,59.468749 138.65625,59.46875 z M 147.25,59.46875 C 148.08375,59.46875 148.53124,60.027501 148.53125,61.6875 C 148.53125,63.04125 148.0425,63.593748 147.25,63.59375 C 146.3925,63.59375 145.9375,63.037501 145.9375,61.34375 C 145.9375,60.07 146.42376,59.468749 147.25,59.46875 z M 103.6875,61.0625 C 104.25875,61.81875 104.98125,62.601248 105.65625,63.21875 C 105.2825,63.4925 104.825,63.656248 104.34375,63.65625 C 103.5425,63.65625 103.03125,63.198748 103.03125,62.375 C 103.03125,61.825 103.3,61.41875 103.6875,61.0625 z M 130,69.59375 L 130,76.625 C 130,77.5975 130.31501,77.812496 131.0625,77.8125 C 131.3575,77.8125 131.67999,77.767499 131.96875,77.6875 L 131.9375,77 L 131.5625,77 C 131.21875,77 131.15625,76.881252 131.15625,76.25 L 131.15625,69.59375 L 130,69.59375 z M 104.96875,69.90625 C 103.21875,69.90625 102.0625,71.604998 102.0625,74 C 102.0625,76.54375 103.1575,77.8125 104.875,77.8125 C 105.8475,77.8125 106.58,77.272499 107.09375,76.5 L 106.5625,76 C 106.195,76.4125 105.675,76.718753 105.125,76.71875 C 104.07375,76.71875 103.34375,75.856247 103.34375,73.84375 C 103.34375,72.2175 103.965,70.968747 105.0625,70.96875 C 105.62375,70.96875 106.02375,71.235002 106.46875,71.78125 L 107.0625,71.28125 C 106.62875,70.4575 105.92,69.906252 104.96875,69.90625 z M 133.4375,70.34375 C 133.3375,70.895 133.16875,71.504998 133,72 L 132.09375,72 L 132.09375,72.8125 L 132.96875,72.8125 L 132.96875,76.15625 C 132.96875,77.3475 133.365,77.8125 134.34375,77.8125 C 134.78,77.8125 135.32374,77.6875 135.65625,77.5 L 135.59375,76.8125 C 135.3625,76.87125 135.05624,76.906253 134.8125,76.90625 C 134.27625,76.90625 134.125,76.569997 134.125,76.0625 L 134.125,72.8125 L 135.53125,72.8125 L 135.53125,72 L 134.125,72 L 134.125,70.34375 L 133.4375,70.34375 z M 148.53125,70.34375 C 148.42625,70.895 148.235,71.504998 148.0625,72 L 147.15625,72 L 147.15625,72.8125 L 148.03125,72.8125 L 148.03125,76.15625 C 148.03125,77.3475 148.45375,77.8125 149.4375,77.8125 C 149.87875,77.8125 150.41999,77.6875 150.75,77.5 L 150.65625,76.8125 C 150.4275,76.87125 150.11999,76.906253 149.875,76.90625 C 149.33625,76.90625 149.18751,76.569997 149.1875,76.0625 L 149.1875,72.8125 L 150.59375,72.8125 L 150.59375,72 L 149.1875,72 L 149.1875,70.34375 L 148.53125,70.34375 z M 110.1875,71.90625 C 108.69125,71.90625 107.625,72.87375 107.625,74.96875 C 107.625,77.09 108.55375,77.812503 110.03125,77.8125 C 111.575,77.8125 112.625,76.8225 112.625,74.71875 C 112.625,72.735 111.655,71.906247 110.1875,71.90625 z M 116.5625,71.90625 C 116.0125,71.90625 115.315,72.243748 114.8125,72.65625 L 114.6875,72 L 113.75,72 L 113.75,77.71875 L 114.90625,77.71875 L 114.90625,73.34375 C 115.22125,73.1125 115.71625,72.875001 116.125,72.875 C 116.72125,72.875 117.03125,73.279998 117.03125,74.75 C 117.03125,75.445 117,76.619996 117,77.71875 L 118.15625,77.71875 C 118.15625,76.5175 118.21875,75.183748 118.21875,74.4375 C 118.21875,72.53625 117.60125,71.906247 116.5625,71.90625 z M 121.09375,71.90625 C 120.00375,71.90625 119.28125,72.572499 119.28125,73.59375 C 119.28125,75.58625 121.8125,75.022497 121.8125,76.1875 C 121.8125,76.6725 121.51875,76.968752 120.65625,76.96875 C 120.3125,76.96875 119.79125,76.837501 119.375,76.6875 L 119.21875,77.46875 C 119.72375,77.71 120.26375,77.812496 120.9375,77.8125 C 122.2875,77.8125 123,77.008747 123,76.03125 C 123,74.12 120.40625,74.669998 120.40625,73.5 C 120.40625,73.065 120.67375,72.718753 121.40625,72.71875 C 121.6725,72.71875 122.12375,72.811248 122.46875,72.9375 L 122.625,72.25 C 122.18,72.045 121.66625,71.906247 121.09375,71.90625 z M 138.5625,71.90625 C 137.73875,71.90625 136.91376,72.135003 136.375,72.375 L 136.53125,73.09375 C 137.005,72.9425 137.6,72.812499 138.125,72.8125 C 138.85375,72.8125 139.375,73.057502 139.375,73.8125 L 139.375,74.3125 L 138.90625,74.3125 C 136.76625,74.3125 136.0625,75.257497 136.0625,76.21875 C 136.0625,77.15625 136.63624,77.812503 137.78125,77.8125 C 138.4075,77.8125 138.99875,77.506247 139.53125,77.0625 L 139.625,77.71875 L 140.53125,77.71875 L 140.53125,73.6875 C 140.53125,72.5875 140.05375,71.906247 138.5625,71.90625 z M 144.8125,71.90625 C 144.2575,71.90625 143.5675,72.243748 143.0625,72.65625 L 142.9375,72 L 142.03125,72 L 142.03125,77.71875 L 143.1875,77.71875 L 143.1875,73.34375 C 143.50875,73.1125 143.99749,72.875001 144.40625,72.875 C 145.00625,72.875 145.31249,73.279998 145.3125,74.75 C 145.3125,75.445 145.28124,76.619996 145.28125,77.71875 L 146.4375,77.71875 C 146.4375,76.5175 146.46875,75.183748 146.46875,74.4375 C 146.46875,72.53625 145.855,71.906247 144.8125,71.90625 z M 153,71.90625 C 151.91,71.90625 151.1875,72.572499 151.1875,73.59375 C 151.1875,75.58625 153.71875,75.022497 153.71875,76.1875 C 153.71875,76.6725 153.42125,76.968752 152.5625,76.96875 C 152.22,76.96875 151.72376,76.837501 151.3125,76.6875 L 151.125,77.46875 C 151.63125,77.71 152.16999,77.812496 152.84375,77.8125 C 154.19875,77.8125 154.90625,77.008747 154.90625,76.03125 C 154.90625,74.12 152.3125,74.669998 152.3125,73.5 C 152.3125,73.065 152.57875,72.718753 153.3125,72.71875 C 153.57875,72.71875 154.03126,72.811248 154.375,72.9375 L 154.53125,72.25 C 154.085,72.045 153.575,71.906247 153,71.90625 z M 124.09375,72 C 124.09375,73.2025 124.03125,74.551249 124.03125,75.28125 C 124.03125,77.18375 124.655,77.812503 125.6875,77.8125 C 126.235,77.8125 126.93375,77.4925 127.4375,77.09375 L 127.5625,77.71875 L 128.46875,77.71875 L 128.46875,72 L 127.34375,72 L 127.34375,76.40625 C 127,76.6375 126.53875,76.874996 126.125,76.875 C 125.52375,76.875 125.1875,76.4775 125.1875,75 C 125.1875,74.31125 125.25,73.097498 125.25,72 L 124.09375,72 z M 110.125,72.8125 C 110.9625,72.8125 111.40625,73.372499 111.40625,75.03125 C 111.40625,76.38375 110.945,76.937502 110.15625,76.9375 C 109.29875,76.9375 108.8125,76.408748 108.8125,74.71875 C 108.8125,73.44125 109.3025,72.8125 110.125,72.8125 z M 138.875,75.09375 L 139.375,75.09375 L 139.375,76.40625 C 138.96,76.7 138.50624,76.906253 138.09375,76.90625 C 137.58125,76.90625 137.28125,76.576247 137.28125,76.0625 C 137.28125,75.485 137.57125,75.093748 138.875,75.09375 z"
       transform="translate(279.375,485.28531)"
       id="path2482"
       style="fill:#e11534;fill-opacity:1;fill-rule:nonzero;stroke:none" />
    <path
       d="M 46.8125,20.46875 C 41.153222,20.549603 36.749375,21.990547 33.71875,23.125 C 33.477501,23.39875 33.875,23.46875 33.875,23.46875 C 53.366248,18.402499 71.5525,29.29 79.34375,34.53125 C 79.41625,34.514999 79.6875,34.185 79.375,33.90625 C 66.05496,23.118554 55.083753,20.350581 46.8125,20.46875 z M 42.6875,25.5 C 27.480278,25.62464 17.107461,32.110156 13.375,35.09375 C 13.1975,35.314998 13.45875,35.52125 13.5625,35.5625 C 39.42625,19.654999 69.17375,32.48375 80.21875,38.03125 C 80.218751,38.031251 80.435,37.45125 80.125,37.3125 C 65.758476,28.298828 53.092441,25.41472 42.6875,25.5 z M 36.8125,39.96875 C 36.01875,39.968751 35.71875,40.24875 35.71875,41.03125 C 35.718751,41.446976 35.807577,41.737066 36,41.90625 C 36.169448,42.100301 36.456765,42.1875 36.875,42.1875 C 37.667499,42.1875 37.96875,41.915 37.96875,41.125 C 37.96875,40.762004 37.890058,40.51336 37.75,40.34375 C 37.728268,40.304243 37.715441,40.282762 37.6875,40.25 C 37.677548,40.241358 37.666827,40.22681 37.65625,40.21875 C 37.487031,40.050781 37.216875,39.96875 36.8125,39.96875 z M 71.71875,39.96875 C 70.926248,39.968751 70.625,40.24875 70.625,41.03125 C 70.625001,41.486521 70.734649,41.774419 70.96875,41.9375 C 71.14,42.109063 71.415,42.1875 71.8125,42.1875 C 72.607503,42.1875 72.875,41.915 72.875,41.125 C 72.874998,40.672465 72.789452,40.379575 72.5625,40.21875 C 72.543824,40.200314 72.521154,40.172335 72.5,40.15625 C 72.49165,40.151729 72.477409,40.160515 72.46875,40.15625 C 72.297537,40.035249 72.066414,39.96875 71.71875,39.96875 z M 58.125,40.625 C 57.25375,40.625 56.36625,40.656249 55.375,40.65625 L 55.375,50.96875 L 55.46875,50.96875 L 55.46875,51.03125 L 57.53125,51.03125 L 57.53125,47.40625 L 57.8125,47.40625 C 60.8225,47.40625 62.249999,45.888749 62.25,43.875 C 62.25,43.144489 62.031826,42.516218 61.625,42 C 61.518374,41.855098 61.388364,41.718268 61.25,41.59375 C 61.228646,41.575731 61.209564,41.548787 61.1875,41.53125 C 60.521875,40.969531 59.504999,40.625001 58.125,40.625 z M 7.375,40.65625 L 7.375,50.96875 C 7.3981073,50.96875 7.4145112,50.968713 7.4375,50.96875 L 7.4375,51.03125 C 8.43125,51.03125 9.3175,51.062502 10.125,51.0625 C 13.3025,51.0625 14.375,49.492501 14.375,47.78125 C 14.375,47.415625 14.234937,47.011042 14.03125,46.65625 C 14.026662,46.647758 14.03594,46.633455 14.03125,46.625 C 14.004795,46.579977 13.966825,46.543725 13.9375,46.5 C 13.615764,45.990923 13.096224,45.557446 12.46875,45.40625 C 13.33217,44.966524 13.84375,44.320752 13.84375,43.21875 C 13.84375,42.812677 13.743579,42.4458 13.59375,42.125 C 13.544783,42.007847 13.474559,41.886058 13.40625,41.78125 C 13.385449,41.752759 13.366099,41.714954 13.34375,41.6875 C 13.265931,41.581023 13.162029,41.497812 13.0625,41.40625 C 13.041327,41.388346 13.022075,41.361008 13,41.34375 C 12.489687,40.912969 11.7325,40.65625 10.6875,40.65625 L 7.375,40.65625 z M 83.34375,40.96875 C 83.1625,41.79375 82.879997,42.67375 82.5625,43.3125 L 81.5625,43.3125 L 81.5625,44.625 L 81.59375,44.625 L 81.59375,44.71875 L 82.53125,44.71875 L 82.53125,48.78125 C 82.53125,49.178125 82.584043,49.51918 82.65625,49.8125 C 82.66098,49.833707 82.682385,49.854301 82.6875,49.875 C 82.724884,50.010674 82.756722,50.137249 82.8125,50.25 C 83.091122,50.874799 83.632863,51.1875 84.53125,51.1875 C 85.17375,51.1875 85.90125,51.01 86.40625,50.75 L 86.3125,49.59375 C 86.295068,49.59638 86.268785,49.591206 86.25,49.59375 L 86.25,49.53125 C 85.96125,49.575 85.477503,49.593749 85.25,49.59375 C 84.902484,49.59375 84.694252,49.382459 84.59375,49.09375 C 84.564355,48.985703 84.562501,48.868125 84.5625,48.75 L 84.5625,44.71875 L 86.21875,44.71875 L 86.21875,43.375 L 86.1875,43.375 L 86.1875,43.3125 L 84.5625,43.3125 L 84.5625,41.03125 L 84.53125,41.03125 L 84.53125,40.96875 L 83.34375,40.96875 z M 9.46875,42.28125 L 10.4375,42.28125 C 10.881875,42.28125 11.192969,42.424063 11.40625,42.65625 C 11.429464,42.687882 11.448949,42.715961 11.46875,42.75 C 11.491956,42.781657 11.511464,42.80968 11.53125,42.84375 C 11.61697,43.027627 11.65625,43.24489 11.65625,43.46875 C 11.65625,44.18625 11.175,44.812502 10.0625,44.8125 L 9.46875,44.8125 L 9.46875,42.28125 z M 57.53125,42.34375 L 57.9375,42.34375 C 58.510312,42.34375 58.952905,42.421155 59.28125,42.59375 C 59.348597,42.636093 59.412188,42.668464 59.46875,42.71875 C 59.503393,42.744205 59.531144,42.78462 59.5625,42.8125 C 59.834284,43.109365 59.968749,43.521938 59.96875,44.03125 C 59.96875,45.1875 59.230001,45.750001 57.90625,45.75 L 57.53125,45.75 L 57.53125,42.34375 z M 18.65625,43.15625 C 16.52,43.15625 15.25,44.734998 15.25,47.34375 C 15.25,48.372567 15.438853,49.152802 15.78125,49.75 C 15.87587,49.915032 15.975209,50.084884 16.09375,50.21875 C 16.111542,50.240198 16.137895,50.26054 16.15625,50.28125 C 16.277468,50.408858 16.418908,50.527089 16.5625,50.625 C 17.075695,51.001528 17.713485,51.1875 18.5,51.1875 C 19.66,51.1875 20.80375,50.83 21.78125,50.34375 L 21.53125,49.21875 C 21.52207,49.221334 21.509239,49.216189 21.5,49.21875 L 21.46875,49.15625 C 20.705,49.37125 19.750001,49.499999 19,49.5 C 18.519375,49.5 18.080469,49.353906 17.78125,49.0625 C 17.733375,49.015875 17.697732,48.960859 17.65625,48.90625 C 17.649169,48.895148 17.631837,48.886388 17.625,48.875 C 17.611244,48.855621 17.6067,48.832838 17.59375,48.8125 C 17.450331,48.547449 17.375,48.195393 17.375,47.78125 L 17.375,47.65625 L 21.8125,47.65625 C 21.903361,46.358019 21.746435,45.403686 21.40625,44.71875 C 21.321136,44.529409 21.204723,44.370211 21.09375,44.21875 C 21.06912,44.188009 21.056973,44.154115 21.03125,44.125 C 20.921948,43.988457 20.786464,43.886523 20.65625,43.78125 C 20.129935,43.355746 19.451399,43.156251 18.65625,43.15625 z M 26.25,43.15625 C 24.99875,43.15625 23.9625,43.507502 23.125,43.84375 L 23.34375,45.0625 C 23.361307,45.0569 23.388416,45.068063 23.40625,45.0625 L 23.40625,45.125 C 24.05,44.92375 24.881249,44.75 25.625,44.75 C 26.023125,44.75 26.392656,44.796563 26.65625,44.96875 C 26.868677,45.142527 27,45.384836 27,45.75 L 27,46.28125 L 26.46875,46.28125 C 23.7225,46.28125 22.656251,47.491249 22.65625,48.90625 C 22.65625,49.462614 22.787062,49.924415 23.03125,50.28125 C 23.037804,50.292202 23.055737,50.301729 23.0625,50.3125 C 23.119833,50.391795 23.180072,50.463149 23.25,50.53125 C 23.637171,50.962772 24.23048,51.1875 25.0625,51.1875 C 25.915122,51.1875 26.747963,50.772872 27.3125,50.25 L 27.5,50.96875 L 27.5625,50.96875 L 27.5625,51.03125 L 29.03125,51.03125 L 29.03125,45.71875 C 29.03125,44.909375 28.813437,44.295156 28.375,43.875 C 27.940626,43.404615 27.2676,43.15625 26.25,43.15625 z M 34.25,43.15625 C 33.62209,43.15625 33.161516,43.670982 32.46875,44.59375 L 32.21875,43.375 L 32.125,43.375 L 32.125,43.3125 L 30.65625,43.3125 L 30.65625,50.96875 L 30.71875,50.96875 L 30.71875,51.03125 L 32.6875,51.03125 L 32.6875,46.15625 C 33.2225,45.45375 33.60625,45 34,45 C 34.19875,45 34.427499,45.067498 34.75,45.15625 L 35,43.34375 C 34.97734,43.33814 34.959538,43.349052 34.9375,43.34375 L 34.9375,43.25 C 34.675,43.19 34.447499,43.15625 34.25,43.15625 z M 43.75,43.15625 C 42.964923,43.15625 42.142222,43.544465 41.4375,44.125 L 41.25,43.375 L 41.1875,43.375 L 41.1875,43.3125 L 39.65625,43.3125 L 39.65625,50.96875 L 39.71875,50.96875 L 39.71875,51.03125 L 41.6875,51.03125 L 41.6875,45.21875 C 42.09875,45.00625 42.57,44.874998 43.03125,44.875 C 43.184062,44.875 43.34834,44.873203 43.46875,44.9375 C 43.492939,44.95699 43.508774,44.975839 43.53125,45 C 43.56529,45.024469 43.594172,45.060686 43.625,45.09375 C 43.83606,45.400034 43.937501,45.984899 43.9375,47.0625 C 43.9375,47.8425 43.906248,49.398751 43.90625,50.96875 L 43.96875,50.96875 C 43.968727,50.993911 43.96875,51.006076 43.96875,51.03125 L 45.9375,51.03125 C 45.9375,49.3225 46,47.618748 46,46.6875 C 46,45.664472 45.860767,44.915671 45.625,44.375 C 45.570829,44.235214 45.505577,44.113897 45.4375,44 C 45.414521,43.96565 45.399391,43.938085 45.375,43.90625 C 45.309958,43.809092 45.23257,43.733587 45.15625,43.65625 C 45.149727,43.650614 45.131596,43.661763 45.125,43.65625 C 44.775926,43.311307 44.324562,43.15625 43.75,43.15625 z M 51.03125,43.15625 C 48.2575,43.15625 47.09375,44.811248 47.09375,47.34375 C 47.09375,48.94875 47.562773,50.02918 48.46875,50.46875 C 48.793014,50.650235 49.183229,50.75 49.625,50.75 C 50.311334,50.75 51.122636,50.365953 51.6875,49.9375 L 51.6875,50.8125 C 51.6875,52.0925 51.2,52.532501 47.75,52.0625 L 47.625,53.09375 C 47.655552,53.107813 47.68823,53.1114 47.71875,53.125 L 47.71875,53.15625 C 48.70875,53.61375 49.660002,53.843751 50.5,53.84375 C 52.36125,53.84375 53.6875,53.127499 53.6875,50.75 L 53.6875,43.53125 C 53.657656,43.5248 53.624135,43.506309 53.59375,43.5 L 53.59375,43.46875 C 52.8175,43.3025 51.8575,43.156252 51.03125,43.15625 z M 66.09375,43.15625 C 63.9425,43.15625 62.499999,44.53375 62.5,47.3125 C 62.5,48.749277 62.825056,49.709808 63.4375,50.3125 C 63.527598,50.411048 63.646586,50.481296 63.75,50.5625 C 63.790773,50.591461 63.832355,50.629697 63.875,50.65625 C 64.416883,51.02863 65.093807,51.1875 65.9375,51.1875 C 68.12125,51.1875 69.593751,49.796249 69.59375,47 C 69.59375,45.615932 69.219876,44.678592 68.5625,44.0625 C 68.515195,44.012551 68.456943,43.983231 68.40625,43.9375 C 68.332509,43.878183 68.267525,43.801322 68.1875,43.75 C 67.634616,43.354126 66.939724,43.15625 66.09375,43.15625 z M 78.53125,43.15625 C 77.749808,43.15625 76.920268,43.544465 76.21875,44.125 L 76.0625,43.375 L 75.9375,43.375 L 75.9375,43.3125 L 74.4375,43.3125 L 74.4375,50.96875 L 74.53125,50.96875 L 74.53125,51.03125 L 76.5,51.03125 L 76.5,45.21875 C 76.91375,45.00625 77.384998,44.874998 77.84375,44.875 C 77.99625,44.875 78.129766,44.873203 78.25,44.9375 C 78.274221,44.95699 78.289997,44.975839 78.3125,45 C 78.346494,45.024469 78.375459,45.060686 78.40625,45.09375 C 78.617535,45.400034 78.718752,45.984899 78.71875,47.0625 C 78.71875,47.8425 78.656247,49.398751 78.65625,50.96875 L 78.75,50.96875 C 78.749975,50.993911 78.75,51.006076 78.75,51.03125 L 80.75,51.03125 C 80.75,49.3225 80.812497,47.618748 80.8125,46.6875 C 80.8125,45.322304 80.57417,44.441113 80.15625,43.90625 C 80.090985,43.809092 80.014036,43.733587 79.9375,43.65625 C 79.930965,43.650614 79.912858,43.661763 79.90625,43.65625 C 79.5562,43.311307 79.105812,43.15625 78.53125,43.15625 z M 35.875,43.3125 L 35.875,50.96875 L 35.9375,50.96875 L 35.9375,51.03125 L 37.90625,51.03125 L 37.90625,43.375 L 37.84375,43.375 L 37.84375,43.3125 L 35.875,43.3125 z M 70.78125,43.3125 L 70.78125,50.96875 L 70.875,50.96875 L 70.875,51.03125 L 72.84375,51.03125 L 72.84375,43.375 L 72.75,43.375 L 72.75,43.3125 L 70.78125,43.3125 z M 18.65625,44.5625 C 18.85875,44.5625 19.035039,44.580977 19.1875,44.65625 C 19.236306,44.685474 19.300704,44.713146 19.34375,44.75 C 19.354734,44.75798 19.364347,44.772833 19.375,44.78125 C 19.425352,44.828348 19.458152,44.879963 19.5,44.9375 C 19.704219,45.218281 19.8125,45.613125 19.8125,46.09375 L 19.8125,46.28125 L 17.375,46.28125 C 17.425477,45.14923 17.981893,44.5625 18.65625,44.5625 z M 50.875,44.625 C 51.067748,44.625 51.319245,44.659327 51.625,44.71875 L 51.625,48.6875 C 51.2275,48.90125 50.786248,49.03125 50.40625,49.03125 C 50.162438,49.03125 49.933064,49.017445 49.75,48.90625 C 49.738831,48.897238 49.729612,48.884708 49.71875,48.875 C 49.661578,48.836186 49.612244,48.774461 49.5625,48.71875 C 49.340312,48.394844 49.218749,47.838124 49.21875,46.90625 C 49.21875,45.3925 49.975,44.625002 50.875,44.625 z M 66.09375,44.71875 C 66.308125,44.71875 66.51418,44.755723 66.6875,44.84375 C 66.738235,44.877251 66.797575,44.893098 66.84375,44.9375 C 66.859735,44.949436 66.859496,44.986922 66.875,45 C 67.221092,45.374151 67.4375,46.086379 67.4375,47.375 C 67.4375,49.03625 66.838753,49.625001 66,49.625 C 65.689865,49.625 65.439921,49.57082 65.21875,49.40625 C 65.207869,49.396544 65.198117,49.385289 65.1875,49.375 C 65.175854,49.365515 65.16761,49.353856 65.15625,49.34375 C 64.80731,48.976842 64.625001,48.269975 64.625,47 C 64.625,45.35375 65.179999,44.718752 66.09375,44.71875 z M 9.46875,46.375 L 10.34375,46.375 C 10.825156,46.375 11.209998,46.486445 11.5,46.65625 C 11.565488,46.699945 11.632487,46.730738 11.6875,46.78125 C 11.710461,46.799906 11.728617,46.824106 11.75,46.84375 C 11.798795,46.894947 11.835712,46.943772 11.875,47 C 11.897906,47.027877 11.917142,47.06457 11.9375,47.09375 C 12.066198,47.314823 12.125,47.557247 12.125,47.8125 C 12.125,48.75625 11.65875,49.437501 10.34375,49.4375 C 10.074165,49.4375 9.6593316,49.38879 9.46875,49.375 L 9.46875,46.375 z M 26.5,47.625 L 27,47.625 L 27,49.125 C 26.60375,49.3975 26.125001,49.593749 25.625,49.59375 C 25.242716,49.59375 24.966124,49.424894 24.8125,49.15625 C 24.769004,49.039824 24.75,48.903438 24.75,48.75 C 24.75,48.14125 25.07875,47.625001 26.5,47.625 z M 88.75,49.09375 C 88.0375,49.09375 87.437503,49.675 87.4375,50.375 C 87.4375,51.085 88.037502,51.65625 88.75,51.65625 C 89.465,51.65625 90.031248,51.085 90.03125,50.375 C 90.03125,49.675 89.465002,49.093751 88.75,49.09375 z M 88.75,49.40625 C 89.29875,49.40625 89.749998,49.851249 89.75,50.40625 C 89.75,50.94625 89.298754,51.374999 88.75,51.375 C 88.185,51.375 87.749997,50.946249 87.75,50.40625 C 87.75,49.85125 88.185004,49.406249 88.75,49.40625 z M 88.71875,49.6875 C 88.595,49.6875 88.461247,49.718751 88.3125,49.71875 L 88.3125,51.03125 L 88.59375,51.03125 L 88.59375,50.5 L 88.65625,50.5 L 88.9375,51.03125 L 89.25,51.03125 L 88.90625,50.46875 C 89.09375,50.39875 89.218751,50.264998 89.21875,50.09375 C 89.21875,49.86875 89.061251,49.687499 88.71875,49.6875 z M 88.59375,49.90625 L 88.6875,49.90625 C 88.85875,49.90625 88.937497,50.004999 88.9375,50.125 C 88.9375,50.22 88.849997,50.281252 88.71875,50.28125 L 88.59375,50.28125 L 88.59375,49.90625 z"
       transform="translate(279.375,485.28531)"
       id="path2454"
       style="fill:#ffffff;fill-opacity:1;fill-rule:nonzero;stroke:none" />
  </g>
</svg>
